<svg width="23" height="23" viewBox="0 0 23 23" fill="none" xmlns="http://www.w3.org/2000/svg">
<path fill-rule="evenodd" clip-rule="evenodd" d="M2.55556 23H20.4444C21.8558 23 23 21.8558 23 20.4444V2.55556C23 1.14416 21.8558 0 20.4444 0H2.55556C1.14416 0 0 1.14416 0 2.55556V20.4444C0 21.8558 1.14416 23 2.55556 23ZM19.8056 19.8056H16.3925V13.9923C16.3925 12.3985 15.7869 11.5078 14.5254 11.5078C13.153 11.5078 12.436 12.4347 12.436 13.9923V19.8056H9.14676V8.73148H12.436V10.2232C12.436 10.2232 13.425 8.39315 15.775 8.39315C18.1239 8.39315 19.8056 9.82754 19.8056 12.7941V19.8056ZM5.22271 7.28142C4.10232 7.28142 3.19444 6.36642 3.19444 5.23793C3.19444 4.10945 4.10232 3.19444 5.22271 3.19444C6.34309 3.19444 7.25043 4.10945 7.25043 5.23793C7.25043 6.36642 6.34309 7.28142 5.22271 7.28142ZM3.52429 19.8056H6.95411V8.73148H3.52429V19.8056Z" fill="#46B8C8"/>
</svg>
