<svg width="179" height="44" viewBox="0 0 179 44" fill="none" xmlns="http://www.w3.org/2000/svg">
<path d="M41.4677 18.1546H37.4882C37.5263 17.8433 37.491 17.5276 37.3852 17.2321C37.2793 16.9366 37.1058 16.6693 36.8781 16.4511C36.6504 16.2328 36.3748 16.0696 36.0727 15.9742C35.7706 15.8788 35.4503 15.8537 35.1368 15.9009C33.8709 15.9009 33.1478 16.6087 33.1478 17.5912C33.1478 21.0084 41.6124 21.9243 41.6124 27.3135C41.6124 30.449 39.4787 32.6319 35.2457 32.6319C31.1573 32.6319 28.6255 30.483 28.6255 26.8874H32.6766C32.6474 27.2249 32.6945 27.5646 32.8144 27.882C32.9342 28.1993 33.124 28.4864 33.3698 28.7224C33.6157 28.9584 33.9115 29.1374 34.2359 29.2465C34.5603 29.3556 34.9052 29.3921 35.2457 29.3534C36.692 29.3534 37.597 28.613 37.597 27.3814C37.597 24.6012 29.0236 23.0157 29.0236 17.7681C29.0236 14.7387 31.1215 12.5898 35.028 12.5898C39.1522 12.5898 41.4677 14.4216 41.4677 18.1546Z" fill="#141416"/>
<path d="M43.5656 16.2894V13.0845C45.8439 13.0845 46.5312 12.2351 46.5312 9.4209H49.3179V12.8382H52.4998V16.254H49.3179V26.258C49.3179 28.1252 49.6043 29.0057 51.7409 29.0057C52.0081 29.0108 52.2751 28.9871 52.5371 28.9349V32.3862C52.5371 32.3862 51.8497 32.4569 50.9089 32.4569C45.8081 32.4569 45.2295 29.5691 45.2295 25.0604V16.2158H43.5656V16.2894Z" fill="#141416"/>
<path d="M60.1703 32.6325C56.8566 32.5957 55.1053 30.5247 55.1053 26.6445V18.5756C54.9842 16.9553 55.4864 15.3496 56.5115 14.0797C56.9872 13.6057 57.5595 13.2373 58.1903 12.9988C58.8211 12.7604 59.4961 12.6574 60.1703 12.6966C60.9418 12.6565 61.7112 12.8099 62.4067 13.1425C63.1022 13.4752 63.7013 13.9762 64.1484 14.5992V12.909H67.9475V32.3522H64.1484V30.6606C63.7104 31.2972 63.1149 31.8126 62.4187 32.1578C61.7224 32.5029 60.9484 32.6663 60.1703 32.6325ZM61.5493 16.1139C59.9898 16.1139 59.1979 17.1048 59.1979 19.0725V26.1505C59.1979 28.1408 59.9669 29.1091 61.5493 29.1091C63.1245 29.0723 63.9007 28.1054 63.9007 26.1505V18.6846C63.9475 18.3572 63.921 18.0237 63.823 17.7075C63.7251 17.3914 63.558 17.1004 63.3337 16.8552C63.1093 16.6099 62.8332 16.4164 62.5249 16.2883C62.2166 16.1602 61.8835 16.1007 61.5493 16.1139Z" fill="#141416"/>
<path d="M79.4862 16.5002H78.9434C76.0136 16.5002 75.2532 17.9441 75.2532 21.1547V32.321H71.202V12.8721H75.0369V14.81C75.362 13.7526 76.7367 12.6611 79.1597 12.6611H79.4847L79.4862 16.5002Z" fill="#141416"/>
<path d="M81.8737 16.2894V13.0845C84.152 13.0845 84.8394 12.2351 84.8394 9.4209H87.6261V12.8382H90.808V16.254H87.6261V26.258C87.6261 28.1252 87.9125 29.0057 90.049 29.0057C90.3162 29.0108 90.5832 28.9871 90.8452 28.9349V32.3862C90.8452 32.3862 90.1579 32.4569 89.217 32.4569C84.1162 32.4569 83.5377 29.5691 83.5377 25.0604V16.2158H81.8737V16.2894Z" fill="#141416"/>
<path d="M102.275 12.8716H106.327V26.3622C106.385 27.2036 106.259 28.0475 105.956 28.8359C105.653 29.6244 105.182 30.3389 104.574 30.9304C103.965 31.522 103.235 31.9766 102.433 32.2632C101.631 32.5498 100.775 32.6616 99.9249 32.5909C95.8738 32.5909 93.4809 30.1957 93.4809 26.3622V12.8716H97.5363V26.9256C97.5234 27.2334 97.5776 27.5404 97.6953 27.8257C97.813 28.1109 97.9913 28.3678 98.2183 28.5789C98.4453 28.79 98.7156 28.9503 99.0108 29.049C99.306 29.1477 99.6192 29.1825 99.9292 29.151C100.233 29.166 100.537 29.1195 100.822 29.0142C101.108 28.9089 101.368 28.7471 101.588 28.5387C101.807 28.3303 101.982 28.0797 102.1 27.8023C102.218 27.5249 102.278 27.2266 102.275 26.9256V12.8716Z" fill="#141416"/>
<path d="M113.38 38.9729H109.293V12.8367H113.128V14.5269C113.563 13.8977 114.153 13.3893 114.844 13.0503C115.534 12.7112 116.3 12.5529 117.07 12.5904C117.754 12.5569 118.436 12.6656 119.075 12.9094C119.713 13.1533 120.292 13.5269 120.775 14.006C121.795 15.2802 122.294 16.887 122.171 18.5076V26.6048C122.171 30.4524 120.407 32.4866 117.07 32.4866C116.367 32.5201 115.666 32.3858 115.027 32.0951C114.387 31.8044 113.828 31.3657 113.396 30.8162L113.38 30.795V38.9658V38.9729ZM115.696 16.0784C114.158 16.0784 113.344 17.1019 113.344 19.037V26.1518C113.344 28.0417 114.158 29.0397 115.696 29.0397C117.281 29.0397 118.084 28.0558 118.084 26.1165V19.0385C118.084 17.0736 117.279 16.0784 115.696 16.0784Z" fill="#141416"/>
<path d="M135.701 32.3148H123.945L130.389 16.3186H124.596V12.8716H135.918L129.515 28.8678H135.701V32.3191V32.3148Z" fill="#141416"/>
<path d="M139.571 32.5631C139.342 32.5684 139.114 32.5287 138.901 32.4463C138.687 32.3639 138.493 32.2404 138.328 32.0831C138.163 31.9258 138.031 31.7377 137.94 31.5297C137.849 31.3217 137.801 31.098 137.798 30.8715C137.803 30.4105 137.992 29.9702 138.324 29.6467C138.657 29.3233 139.105 29.1432 139.571 29.1459C139.805 29.1412 140.037 29.1822 140.254 29.2665C140.472 29.3508 140.67 29.4767 140.838 29.6371C141.006 29.7975 141.14 29.9891 141.233 30.201C141.326 30.4128 141.375 30.6407 141.379 30.8715C141.375 31.1006 141.325 31.3267 141.231 31.5364C141.138 31.7462 141.003 31.9354 140.835 32.0929C140.666 32.2505 140.468 32.3732 140.251 32.454C140.034 32.5347 139.803 32.5718 139.571 32.5631Z" fill="#141416"/>
<path d="M152.088 27.9834C152.15 28.6029 152.073 29.2283 151.863 29.8153C151.654 30.4023 151.316 30.9365 150.874 31.3802C150.433 31.8239 149.898 32.1662 149.307 32.3828C148.717 32.5994 148.085 32.685 147.458 32.6336C146.827 32.6908 146.192 32.6094 145.597 32.3954C145.002 32.1813 144.462 31.8399 144.016 31.3955C143.57 30.9512 143.229 30.4149 143.017 29.825C142.805 29.2351 142.728 28.6062 142.791 27.9834V22.8066C142.739 22.1893 142.825 21.5684 143.042 20.9873C143.259 20.4062 143.601 19.8791 144.046 19.4427C144.491 19.0064 145.026 18.6715 145.616 18.4615C146.205 18.2515 146.834 18.1715 147.458 18.2271C148.079 18.1772 148.703 18.2614 149.288 18.474C149.873 18.6865 150.404 19.0223 150.845 19.4579C151.285 19.8936 151.624 20.4187 151.839 20.997C152.054 21.5752 152.138 22.1927 152.088 22.8066V23.0175H149.158V22.4512C149.181 22.2229 149.154 21.9921 149.078 21.7753C149.001 21.5585 148.878 21.361 148.716 21.1966C148.553 21.0323 148.357 20.9052 148.139 20.8243C147.922 20.7434 147.689 20.7107 147.458 20.7285C147.224 20.7094 146.989 20.7411 146.769 20.8212C146.549 20.9013 146.349 21.028 146.184 21.1923C146.018 21.3566 145.891 21.5547 145.811 21.7726C145.731 21.9906 145.7 22.2231 145.721 22.4541V28.3713C145.694 28.6036 145.72 28.839 145.798 29.0599C145.875 29.2808 146.002 29.4816 146.169 29.6474C146.336 29.8132 146.539 29.9397 146.762 30.0175C146.985 30.0953 147.223 30.1224 147.458 30.0969C147.69 30.115 147.923 30.0824 148.14 30.0014C148.358 29.9205 148.555 29.7931 148.717 29.6284C148.88 29.4636 149.003 29.2656 149.079 29.0483C149.155 28.8311 149.182 28.5999 149.158 28.3713V27.8433H152.088V27.9834Z" fill="#141416"/>
<path d="M158.345 32.6339C157.715 32.6892 157.08 32.6066 156.486 32.3919C155.892 32.1772 155.353 31.8358 154.907 31.3918C154.462 30.9479 154.12 30.4123 153.908 29.8233C153.696 29.2342 153.617 28.6061 153.678 27.9836V22.8068C153.649 22.1991 153.742 21.5917 153.951 21.0196C154.161 20.4475 154.483 19.9219 154.898 19.4731C155.359 19.0478 155.901 18.7183 156.494 18.5043C157.086 18.2903 157.715 18.1961 158.345 18.2273C158.966 18.1774 159.59 18.2617 160.175 18.4742C160.76 18.6868 161.291 19.0225 161.732 19.4582C162.172 19.8938 162.511 20.419 162.726 20.9972C162.941 21.5755 163.025 22.1929 162.975 22.8068V27.9836C163.037 29.236 162.595 30.4618 161.744 31.3924C161.292 31.8149 160.757 32.1426 160.173 32.3559C159.589 32.5692 158.967 32.6638 158.345 32.6339ZM158.345 20.7287C158.11 20.705 157.873 20.7335 157.651 20.812C157.429 20.8905 157.227 21.017 157.06 21.1823C156.894 21.3477 156.767 21.5477 156.689 21.7678C156.61 21.9878 156.583 22.2224 156.608 22.4543V28.3715C156.581 28.6039 156.607 28.8392 156.685 29.0602C156.762 29.2811 156.889 29.4819 157.056 29.6477C157.223 29.8134 157.426 29.9399 157.649 30.0177C157.872 30.0956 158.11 30.1227 158.345 30.0971C158.577 30.1152 158.81 30.0827 159.027 30.0018C159.245 29.9209 159.442 29.7936 159.604 29.6291C159.766 29.4645 159.89 29.2666 159.966 29.0496C160.042 28.8325 160.069 28.6015 160.045 28.3729V22.4543C160.069 22.2257 160.042 21.9945 159.966 21.7772C159.89 21.56 159.767 21.3619 159.604 21.1972C159.442 21.0325 159.245 20.9051 159.027 20.8241C158.81 20.7432 158.577 20.7106 158.345 20.7287Z" fill="#141416"/>
<path d="M167.424 32.3874H164.494V18.3334H167.279V19.4956C167.532 19.0714 167.9 18.7249 168.341 18.4948C168.781 18.2646 169.278 18.1598 169.775 18.1918C170.361 18.153 170.945 18.2819 171.458 18.5631C171.972 18.8443 172.392 19.2659 172.669 19.7773C172.988 19.2787 173.432 18.8704 173.959 18.5925C174.485 18.3146 175.075 18.1765 175.672 18.1918C177.734 18.1918 179 19.4248 179 22.3126V32.386H176.033V22.2433C176.033 21.081 175.381 20.6932 174.622 20.6932C174.425 20.687 174.228 20.723 174.046 20.7986C173.864 20.8743 173.7 20.9878 173.567 21.1315C173.433 21.2752 173.332 21.4458 173.271 21.6315C173.209 21.8172 173.189 22.0138 173.212 22.2079V32.3874H170.246V22.2433C170.246 21.1108 169.595 20.6932 168.836 20.6932C168.637 20.6839 168.439 20.7177 168.256 20.7922C168.072 20.8668 167.907 20.9803 167.772 21.1247C167.638 21.2692 167.537 21.441 167.477 21.6282C167.417 21.8153 167.399 22.0132 167.425 22.2079L167.424 32.3874Z" fill="#141416"/>
<path d="M10.7035 31.3212C10.3296 31.2201 10.1501 30.8754 10.2426 30.4231L11.3562 25.9746L11.3139 25.9556C11.2327 25.9163 11.1485 25.8834 11.0623 25.8572C10.8589 25.8022 10.6481 25.7452 10.4589 25.694L10.2705 25.643L10.2324 25.6327C10.038 25.5801 9.74435 25.4969 9.47071 25.4229C9.16269 25.3395 8.89877 25.2682 8.66263 25.2134C8.50022 25.183 8.3346 25.2124 8.19903 25.2955C7.5043 25.8386 6.80726 26.3909 6.1385 26.9259L6.12854 26.9338L6.05845 26.9906L6.05738 26.9948L5.98878 27.052C5.31391 27.5891 4.61615 28.1443 3.92494 28.686C3.89854 28.7054 3.8742 28.7261 3.85335 28.7424L3.84727 28.7476C3.81026 28.7816 3.76955 28.8117 3.72579 28.8375C3.64873 28.8893 3.56 28.9239 3.46584 28.9386C3.37169 28.9533 3.27439 28.9478 3.18082 28.9226C3.0521 28.8879 2.93607 28.8161 2.84885 28.717C2.76164 28.6179 2.70757 28.4965 2.69417 28.3698C2.6853 28.2393 2.69741 28.1092 2.73006 27.984C2.90288 27.2937 3.09274 26.5352 3.22754 25.9808L3.30497 25.6715C3.67706 24.1692 4.06047 22.6184 4.45877 21.0816C4.63188 20.2592 5.0352 19.5067 5.62619 18.9036C6.21719 18.3005 6.97399 17.869 7.8168 17.6546C8.24273 17.5426 8.68422 17.4838 9.13061 17.4797C9.23663 17.4912 9.34118 17.4619 9.42129 17.3983C9.5014 17.3348 9.55054 17.2422 9.55791 17.1408C9.6955 16.5561 9.84374 15.9735 9.987 15.4108L9.98949 15.4008C10.179 14.6438 10.3816 13.863 10.5555 13.076C11.1627 10.4473 12.4316 8.02752 14.2535 6.02377C15.0303 5.1529 15.847 4.36176 16.8355 3.44212C17.1046 3.18689 17.3703 3.0853 17.6043 3.1486C17.7459 3.20762 17.8718 3.29819 17.9714 3.41249C18.071 3.5268 18.1413 3.66142 18.176 3.80476C19.3078 6.65222 19.8037 9.67197 19.6307 12.6623C19.5675 13.3938 19.447 14.1173 19.2701 14.8267C18.9019 16.374 18.5078 17.9484 18.0991 19.5044C18.081 19.5444 18.0716 19.5879 18.0714 19.6322C18.0712 19.6765 18.0803 19.7209 18.098 19.7626C18.1158 19.8043 18.1418 19.8425 18.1747 19.8751C18.2076 19.9076 18.2467 19.9338 18.2896 19.9521C19.2521 20.5191 20.0181 21.3543 20.4794 22.3399C20.9032 23.3278 20.9853 24.4073 20.7132 25.4143C20.3344 26.9785 19.9364 28.5525 19.5498 30.0774L19.5466 30.0902C19.3589 30.8401 19.1545 31.6408 18.9586 32.4234C18.9459 32.5773 18.8756 32.7191 18.7606 32.823C18.6456 32.9268 18.4936 32.9857 18.3325 32.9889C18.2583 32.9913 18.1837 32.9831 18.111 32.9646C17.9931 32.9243 17.8862 32.8567 17.8002 32.7679C17.7142 32.6792 17.6518 32.572 17.6188 32.4564C16.8797 30.6543 16.1699 28.9586 15.4494 27.2705C15.3945 27.1585 15.3075 27.0628 15.199 26.9952C14.955 26.9239 14.697 26.8511 14.3875 26.7674C14.1453 26.7018 13.9053 26.6369 13.6167 26.5588L13.4956 26.5261C13.216 26.4504 12.9257 26.3757 12.6304 26.2958L11.5115 30.7656C11.3967 31.205 11.081 31.4234 10.7035 31.3212ZM17.7796 21.0967C17.7747 21.1127 17.7684 21.1282 17.7608 21.1431L17.7574 21.1566C17.7471 21.1752 17.7388 21.1947 17.7324 21.215L16.5126 26.0878C16.4931 26.2257 16.5126 26.3678 16.5692 26.4993C17.0422 27.6454 17.5164 28.7743 18.0453 30.0257C18.0835 30.1067 18.1279 30.1851 18.1782 30.2601L18.1856 30.272L19.5951 24.6415C19.614 24.5569 19.6249 24.4707 19.6277 24.3836L19.6309 24.3709L19.6341 24.3581C19.6366 24.3163 19.6388 24.2692 19.6451 24.2217C19.6494 23.6009 19.4789 22.9831 19.1516 22.4334C18.8243 21.8837 18.3524 21.4225 17.7855 21.0983L17.7796 21.0967ZM9.17665 18.7308C9.0316 18.7325 8.88732 18.7441 8.74489 18.7655C8.0279 18.8351 7.36025 19.1154 6.8321 19.5686C6.30394 20.0218 5.94074 20.626 5.79154 21.2997C5.4975 22.4201 5.21848 23.5506 4.94963 24.6437L4.86757 24.9715C4.75604 25.4171 4.64059 25.8783 4.52745 26.3302C4.5172 26.3842 4.51251 26.4393 4.51344 26.4946L4.51113 26.5038C4.50758 26.518 4.51058 26.5347 4.50966 26.5511C4.54494 26.5255 4.5833 26.5038 4.624 26.4866L4.62774 26.4876C4.64479 26.4801 4.65831 26.4739 4.67201 26.467C5.15243 26.0849 5.63766 25.6995 6.12345 25.3151L6.18729 25.2641L6.31478 25.163C6.78414 24.791 7.25172 24.4198 7.71751 24.0494C7.83785 23.9417 7.91826 23.7989 7.94742 23.6412C8.16154 22.84 8.36237 22.0186 8.5572 21.2244L8.58562 21.1109C8.67318 20.7611 8.77849 20.3245 8.88062 19.9165L9.1774 18.731L9.17665 18.7308ZM13.8893 18.5724C14.0329 18.6196 14.1573 18.7124 14.2414 18.8349C14.3254 18.9575 14.3641 19.1023 14.3508 19.2449C14.3356 19.372 14.3109 19.4975 14.2768 19.6203L12.9067 25.0934L15.2109 25.7167L18.0304 14.4535C18.4185 12.8971 18.5165 11.2753 18.32 9.6616C18.1161 8.03766 17.757 6.42862 17.2474 4.85499C17.1848 4.91381 17.1265 4.96167 17.0837 4.99859C17.0102 5.05616 16.9426 5.12028 16.8817 5.19014C16.6985 5.39282 16.5106 5.59805 16.3303 5.7985L16.3205 5.80874C15.6707 6.51699 15.0023 7.24825 14.4043 8.00764C13.2467 9.49325 12.4161 11.1967 11.96 13.0204C11.3924 15.3963 10.7797 17.8054 10.1879 20.1346C9.89303 21.2964 9.5875 22.4978 9.29071 23.6834L9.18912 24.0892L11.6436 24.7532L13.0273 19.2255C13.0337 19.2 13.0405 19.173 13.0474 19.1453C13.0596 19.0574 13.0883 18.9731 13.1321 18.8963C13.1895 18.7654 13.2941 18.6603 13.4275 18.5993C13.5609 18.5384 13.7145 18.5256 13.8613 18.5633L13.8893 18.5724Z" fill="#141416"/>
<path d="M5.94365 34.506L7.12412 29.9432C7.15297 29.818 7.19172 29.6952 7.24007 29.5758C7.30087 29.4468 7.41063 29.344 7.54961 29.2859C7.6886 29.2277 7.84771 29.2179 7.99835 29.2584C8.15121 29.2928 8.28745 29.377 8.38132 29.4952C8.47518 29.6134 8.52015 29.7573 8.50774 29.8997C8.49829 30.0038 8.47872 30.1065 8.44926 30.2065L6.01947 39.5982C5.88912 40.0213 5.56733 40.2022 5.17604 40.0832C4.78475 39.9642 4.60702 39.6723 4.71722 39.2464C5.14134 37.6889 5.55015 36.1088 5.94365 34.506Z" fill="#141416"/>
<path d="M11.5541 36.642L12.5992 32.5915C12.6241 32.4502 12.6802 32.3163 12.764 32.198C12.8319 32.0834 12.9433 31.9971 13.0778 31.9549C13.2124 31.9128 13.361 31.9175 13.4963 31.9684C13.6371 32.0022 13.7625 32.0806 13.85 32.1898C13.9375 32.2989 13.9814 32.4316 13.9739 32.5641C13.9699 32.7185 13.9448 32.8711 13.8992 33.0181L11.7966 41.167C11.6626 41.6057 11.3323 41.8236 10.9379 41.7223C10.5434 41.6211 10.364 41.254 10.4741 40.8274L11.5541 36.642Z" fill="#141416"/>
<path d="M8.13654 37.6805L8.71581 35.4105C8.83312 34.9508 9.17799 34.7369 9.56617 34.8386C9.65934 34.8722 9.74517 34.9227 9.81858 34.9871C9.89198 35.0516 9.95147 35.1286 9.99353 35.2137C10.0356 35.2988 10.0593 35.3902 10.0634 35.4825C10.0675 35.5749 10.0518 35.6662 10.0172 35.7512L8.845 40.3447C8.83331 40.4385 8.80106 40.5283 8.75025 40.6084C8.69944 40.6885 8.63115 40.7573 8.54962 40.8104C8.46809 40.8636 8.37506 40.9 8.27629 40.9174C8.17751 40.9348 8.07511 40.9328 7.97542 40.9115C7.59102 40.7919 7.40673 40.46 7.5244 39.9989C7.74277 39.2235 7.93738 38.4609 8.13654 37.6805Z" fill="#141416"/>
<path d="M14.7913 15.2532L14.7581 15.2441C14.1801 15.0806 13.681 14.7075 13.3672 14.2045C13.0533 13.7015 12.9495 13.1083 13.0778 12.5512C13.2258 11.9991 13.5933 11.5344 14.1021 11.256C14.6109 10.9777 15.2208 10.9078 15.8017 11.0611L15.8342 11.07C16.1296 11.1533 16.4076 11.2917 16.6523 11.4772C16.897 11.6627 17.1035 11.8916 17.26 12.1508C17.413 12.3974 17.5155 12.6687 17.5616 12.9491C17.6077 13.2295 17.5965 13.5135 17.5287 13.7848C17.4551 14.0571 17.326 14.3102 17.1488 14.5297C16.9717 14.7492 16.7499 14.9307 16.4963 15.0638C15.9857 15.3427 15.3732 15.4107 14.7913 15.2532ZM15.5275 12.2256C15.2699 12.1561 14.9989 12.1873 14.7739 12.3122C14.5489 12.4372 14.3882 12.6458 14.3272 12.8922C14.2773 13.1397 14.3283 13.4005 14.4698 13.6207C14.6114 13.841 14.8325 14.0039 15.0876 14.0759C15.3488 14.1393 15.6208 14.1022 15.8453 13.9726C15.9555 13.9099 16.0504 13.8255 16.1242 13.7247C16.198 13.6239 16.2492 13.5086 16.2747 13.386C16.3231 13.1432 16.2726 12.8876 16.1336 12.6717C15.9946 12.4558 15.7777 12.2961 15.5275 12.2256Z" fill="#141416"/>
</svg>
