<svg width="23" height="23" viewBox="0 0 23 23" fill="none" xmlns="http://www.w3.org/2000/svg">
<g clip-path="url(#clip0_1_166)">
<path d="M23 4.36856C22.1447 4.74375 21.2333 4.99244 20.2831 5.11319C21.2606 4.52956 22.0067 3.61244 22.3574 2.507C21.4461 3.05037 20.4398 3.43419 19.3674 3.64838C18.5021 2.72694 17.2687 2.15625 15.9232 2.15625C13.3127 2.15625 11.2111 4.27513 11.2111 6.87269C11.2111 7.24644 11.2427 7.60581 11.3203 7.94794C7.40025 7.75675 3.93156 5.87794 1.60137 3.01588C1.19456 3.72169 0.955938 4.52956 0.955938 5.39925C0.955938 7.03225 1.79688 8.47981 3.05037 9.31787C2.29281 9.3035 1.54962 9.08356 0.92 8.73712C0.92 8.7515 0.92 8.77019 0.92 8.78887C0.92 11.0802 2.55444 12.9835 4.69775 13.4219C4.31394 13.5269 3.89562 13.5772 3.4615 13.5772C3.15963 13.5772 2.85487 13.5599 2.56881 13.4967C3.17975 15.364 4.91338 16.7368 6.97475 16.7814C5.3705 18.0363 3.33356 18.7924 1.12844 18.7924C0.74175 18.7924 0.370875 18.7752 0 18.7277C2.08869 20.0747 4.56406 20.8438 7.2335 20.8438C15.9102 20.8438 20.654 13.6562 20.654 7.42613C20.654 7.21769 20.6468 7.01644 20.6367 6.81663C21.5726 6.1525 22.3589 5.32306 23 4.36856Z" fill="#46B8C8"/>
</g>
<defs>
<clipPath id="clip0_1_166">
<rect width="23" height="23" fill="white"/>
</clipPath>
</defs>
</svg>
