<svg width="23" height="23" viewBox="0 0 23 23" fill="none" xmlns="http://www.w3.org/2000/svg">
<g clip-path="url(#clip0_1_161)">
<path fill-rule="evenodd" clip-rule="evenodd" d="M16.2416 0.0734662C14.1256 -0.0252421 8.8845 -0.0204504 6.76658 0.0734662C4.9055 0.160675 3.26387 0.610133 1.94042 1.93359C-0.0388396 3.91285 -0.0205821 6.50755 0.00514189 10.1634C0.00816467 10.5929 0.0112905 11.0372 0.0112905 11.4968C0.0112905 11.927 0.00898661 12.3427 0.00675863 12.7447C-0.0141831 16.5234 -0.0284134 19.0912 1.94042 21.06C3.9233 23.042 6.54661 23.0225 10.1611 22.9957L10.1615 22.9957C10.5945 22.9925 11.0416 22.9891 11.5036 22.9891H11.566H11.566C15.9494 22.9891 17.4718 22.9891 19.0313 22.3854C21.1617 21.5583 22.7698 19.6541 22.927 16.2338C23.0266 14.1169 23.0209 8.87672 22.927 6.7588C22.7372 2.72134 20.5704 0.2728 16.2416 0.0734662ZM19.591 19.5966C18.2557 20.932 16.444 20.9278 12.531 20.9188H12.5302C12.1946 20.918 11.8434 20.9172 11.4758 20.9172C11.2501 20.9172 11.0308 20.9174 10.8176 20.9175C6.50432 20.9206 4.69667 20.9219 3.36067 19.5823C1.97076 18.1989 1.99374 16.0943 2.0271 13.0397C2.0325 12.5455 2.03817 12.0264 2.03817 11.4815C2.03817 11.0194 2.03403 10.5685 2.03 10.1304C1.98793 5.54804 1.95857 2.34971 6.80875 2.1013L6.86374 2.09936C8.0412 2.05774 8.43567 2.0438 11.4624 2.0438L11.5055 2.07255C11.9431 2.07255 12.3727 2.06862 12.7924 2.06479C17.2715 2.02384 20.6399 1.99305 20.8598 6.8508C20.9145 8.06309 20.9269 8.42726 20.9269 11.4958C20.9269 11.771 20.9271 12.0366 20.9274 12.2933V12.2956C20.9313 16.4555 20.933 18.2483 19.591 19.5966ZM11.5038 5.59485C8.2426 5.59485 5.6024 8.23794 5.6024 11.4963C5.6024 14.7575 8.24548 17.3977 11.5038 17.3977C14.765 17.3977 17.4052 14.7546 17.4052 11.4963C17.4052 8.23506 14.7621 5.59485 11.5038 5.59485ZM11.5038 15.3267C9.38685 15.3267 7.67335 13.6123 7.67335 11.4963C7.67335 9.38027 9.38781 7.66581 11.5038 7.66581C13.6198 7.66581 15.3343 9.38027 15.3343 11.4963C15.3352 13.6123 13.6208 15.3267 11.5038 15.3267ZM19.0181 5.36207C19.0181 6.12369 18.4007 6.74111 17.639 6.74111C16.8774 6.74111 16.26 6.12369 16.26 5.36207C16.26 4.60044 16.8774 3.98303 17.639 3.98303C18.4007 3.98303 19.0181 4.60044 19.0181 5.36207Z" fill="#46B8C8"/>
</g>
<defs>
<clipPath id="clip0_1_161">
<rect width="23" height="23" fill="white"/>
</clipPath>
</defs>
</svg>
